PathFileType	4	(X/Y/Z)	c:/Users/goper/Files/vsCode/490R/osim_files/A04/A04_ROM.trc
DataRate	CameraRate	NumFrames	NumMarkers	Units                	OrigDataRate	OrigDataStartFrame	OrigNumFrames
120.00	120.00	9	36	mm	120.0	390	1556
                Frame#	Time	LPSIS			LASIS			LTH1			LTH2			LTH3			LTH4			LLFE			LMFE			LSH1			LSH2			LSH3			LSH4			LLMAL			LMMAL			LCAL			LMTP5			LTOE			LMTP1			RPSIS			RASIS			RTH1			RTH2			RTH3			RTH4			RLFE			RMFE			RSH1			RSH2			RSH3			RSH4			RLMAL			RMMAL			RCAL			RMTP1			RTOE			RMTP5		
		X1	Y1	Z1	X2	Y2	Z2	X3	Y3	Z3	X4	Y4	Z4	X5	Y5	Z5	X6	Y6	Z6	X7	Y7	Z7	X8	Y8	Z8	X9	Y9	Z9	X10	Y10	Z10	X11	Y11	Z11	X12	Y12	Z12	X13	Y13	Z13	X14	Y14	Z14	X15	Y15	Z15	X16	Y16	Z16	X17	Y17	Z17	X18	Y18	Z18	X19	Y19	Z19	X20	Y20	Z20	X21	Y21	Z21	X22	Y22	Z22	X23	Y23	Z23	X24	Y24	Z24	X25	Y25	Z25	X26	Y26	Z26	X27	Y27	Z27	X28	Y28	Z28	X29	Y29	Z29	X30	Y30	Z30	X31	Y31	Z31	X32	Y32	Z32	X33	Y33	Z33	X34	Y34	Z34	X35	Y35	Z35	X36	Y36	Z36

390	3.24167	-314.59680	1067.54053	510.13736	-98.06787	986.88208	429.29056	-199.95378	699.97522	364.55792	-193.71049	658.04456	351.14465	-139.16211	705.02588	364.16815	-140.26727	662.17114	350.81168	-168.85356	542.10559	340.94363	-149.89890	507.98810	476.26587	-209.42915	446.79086	316.88617	-205.76442	404.14407	308.67551	-147.73228	442.03937	326.34164	-153.75795	399.79630	318.24417	-250.27368	114.10277	274.04269	-225.23943	109.97619	354.99048	-312.89926	68.81832	327.59006	-114.67055	64.85351	226.15881	-62.47314	74.81728	284.51987	-76.98211	57.35395	328.90640	-318.69836	1062.97925	618.06451	-100.58828	1025.04578	710.86951	-179.78630	734.32391	770.97815	-171.37715	692.74225	771.94562	-118.22629	740.48694	777.49567	-118.54200	693.00317	775.25708	-104.64323	551.77734	756.40393	-98.24550	542.46362	639.62872	-191.47778	349.40540	763.39642	-195.65973	302.53314	756.40314	-129.96721	338.09424	762.13495	-144.26418	292.36517	760.59930	-205.07600	107.27745	765.18463	-186.34521	109.67204	630.63098	-282.12540	64.36959	691.45081	-64.91731	54.41577	643.74890	-34.60506	73.13243	689.54608	-70.18467	48.28014	763.97742
391	3.25000	-316.04343	1068.70081	510.20465	-100.33501	985.82208	429.84653	-201.20102	699.86108	364.18094	-195.26949	658.08203	351.38553	-140.57437	705.08032	363.95395	-141.37360	662.38727	350.68146	-169.53455	542.11700	340.70630	-150.52364	508.10611	475.99265	-209.94623	446.77121	316.61072	-206.24493	404.11673	308.38391	-148.22281	442.10071	326.09167	-154.14238	399.82013	318.02997	-250.30293	113.99712	273.90939	-225.30791	109.97299	354.88452	-312.92548	68.72240	327.47604	-114.70969	64.76465	226.11633	-62.51343	74.86234	284.47922	-77.02261	57.40517	328.88138	-320.54581	1063.76501	618.13342	-103.41945	1023.59088	711.63727	-180.78697	733.72552	771.70459	-172.18910	692.21863	772.94684	-119.33818	740.30963	778.44000	-119.34104	692.81683	776.33209	-104.22558	551.63593	757.77008	-97.63187	542.49127	640.85193	-190.95473	349.36923	764.13287	-195.39206	302.04041	756.56915	-129.48770	337.99500	762.93542	-143.79437	292.27707	761.20770	-204.95181	107.30688	765.38416	-186.21480	110.01650	630.83960	-282.06247	64.60954	691.56274	-64.87407	54.44499	643.82416	-34.57943	73.05578	689.59729	-70.15417	48.20482	764.06470
392	3.25833	-317.32059	1069.81482	510.24261	-102.28785	984.88135	430.41681	-202.48723	699.73499	363.87512	-196.37181	658.00793	351.00473	-141.80159	705.33411	363.69418	-142.50323	662.50720	350.50815	-170.16953	542.12604	340.39301	-151.19435	508.22186	475.73138	-210.51991	446.69348	316.30603	-206.73546	404.06866	308.13425	-148.68896	442.15921	325.86859	-154.55937	399.82938	317.77774	-250.36227	113.87814	273.78940	-225.47087	109.94707	354.75980	-313.00119	68.63494	327.40317	-114.71815	64.70885	226.07257	-62.58220	74.82115	284.46750	-77.08820	57.40923	328.85968	-322.41257	1064.41919	618.20074	-106.18502	1022.01929	712.30957	-181.91811	733.07275	772.59760	-172.89151	691.61139	773.89142	-120.42576	740.24396	779.45551	-120.15833	692.66064	777.45740	-103.86572	551.54523	759.25616	-96.83176	542.64526	642.07556	-190.44034	349.33670	764.95984	-195.30544	302.38016	757.70471	-129.04590	337.87546	763.74719	-143.46169	292.17303	761.94299	-204.86299	107.28801	765.61774	-186.10855	110.31070	631.05963	-281.96350	64.81760	691.68707	-64.84852	54.45113	643.90717	-34.55867	72.95094	689.69641	-70.15733	48.11856	764.16541
393	3.26667	-318.63342	1070.87854	510.25797	-104.35625	983.88177	430.95248	-203.83002	699.65515	363.38010	-197.39569	657.92749	350.53397	-143.10120	705.46533	363.36700	-143.61996	662.61414	350.32578	-170.81369	542.10028	340.03766	-151.87692	508.29568	475.38074	-211.01529	446.63663	316.02502	-207.13533	404.02832	307.84717	-149.17058	442.16714	325.59564	-155.02594	399.83539	317.49646	-250.41347	113.75525	273.63763	-225.58975	109.90891	354.64545	-313.04428	68.54964	327.32745	-114.75144	64.64085	226.04033	-62.64845	74.82186	284.43729	-77.16089	57.42757	328.86688	-324.26453	1065.15076	618.31268	-108.80759	1020.42401	712.98126	-183.18695	732.48395	773.46167	-173.84866	691.16400	774.86115	-121.84388	740.15887	780.43256	-121.10030	692.58990	778.57428	-103.65212	551.44348	760.79346	-96.32515	542.73248	643.51208	-189.95967	349.27664	765.84686	-194.49367	302.48550	758.41608	-128.64574	337.75665	764.57275	-143.20932	292.05386	762.69855	-204.80109	107.22638	765.83936	-185.96669	110.63371	631.29077	-281.82919	65.02592	691.85901	-64.80310	54.47660	644.01727	-34.57631	72.82307	689.79425	-70.41323	47.91352	764.25262
394	3.27500	-320.82260	1071.68652	509.81116	-106.28536	982.91357	431.33951	-205.19060	699.47095	362.92484	-198.51317	657.73663	350.15292	-144.48628	705.58954	363.06216	-144.81020	662.74982	350.15009	-171.38651	542.07092	339.70859	-152.53256	508.38348	475.04709	-211.44295	446.55237	315.68579	-207.50250	403.96228	307.53134	-149.65207	442.20773	325.29034	-155.42201	399.83807	317.24896	-250.47470	113.62957	273.49692	-225.68134	109.86777	354.50470	-313.12479	68.45454	327.21231	-114.77460	64.53982	225.98560	-62.71286	74.78236	284.40930	-77.21827	57.43648	328.83298	-326.12866	1065.73572	618.32501	-111.28593	1018.87616	713.59436	-184.57626	731.83264	774.48480	-174.84996	690.61426	775.82770	-123.33401	740.06641	781.47430	-122.23927	692.57709	779.80750	-103.74405	551.38586	762.27911	-95.67255	542.91028	644.99158	-189.81097	349.12711	766.69910	-194.77766	302.18259	759.13153	-128.46565	337.60196	765.51276	-143.02687	291.91641	763.43048	-204.76892	107.15607	766.03314	-185.85336	110.90592	631.54065	-281.85254	65.25167	691.88544	-64.79590	54.52859	644.10858	-34.58894	72.72520	689.89716	-70.41036	47.80321	764.33661
395	3.28333	-322.08713	1072.57068	509.84470	-108.38601	981.81573	431.68872	-206.44069	699.26099	362.50360	-199.65135	657.54443	349.73227	-145.90903	705.67285	362.76541	-145.91043	662.79053	350.03107	-172.04811	542.03253	339.35477	-153.08714	508.49966	474.71155	-211.91910	446.47665	315.33810	-207.97427	403.86575	307.26669	-150.14850	442.18408	325.00851	-155.81575	399.85941	316.96069	-250.52397	113.49067	273.32468	-225.80226	109.81733	354.39459	-313.16345	68.37314	327.14035	-114.80659	64.47112	225.94031	-62.73280	74.83468	284.32675	-77.24100	57.50822	328.80661	-327.79099	1066.32812	618.28363	-113.56291	1017.31055	714.09515	-186.45543	731.18774	775.79022	-176.05949	690.21136	776.79608	-124.20912	740.28937	783.19531	-123.49284	692.48956	781.01013	-104.04231	551.30859	763.80627	-95.14874	543.10925	646.51392	-189.66576	348.97873	767.58728	-194.14748	302.28409	759.89771	-128.39600	337.41690	766.34943	-142.86548	291.79132	764.17413	-204.77509	107.04737	766.27856	-185.79382	111.14794	631.81781	-281.85556	65.34414	691.98761	-64.80901	54.59479	644.16718	-34.64459	72.68931	689.96844	-70.41660	47.75639	764.41302
396	3.29167	-323.40906	1073.41980	509.80307	-110.28635	980.71222	431.97610	-207.83562	699.06134	362.04184	-200.76022	657.44751	349.25284	-147.20616	705.84308	362.51788	-146.99051	663.06561	348.97433	-172.51201	542.02765	338.95563	-153.83743	508.57513	474.35257	-212.49100	446.40701	314.99777	-208.45799	403.79398	306.98056	-150.69640	442.16840	324.70569	-156.36662	399.81870	316.67389	-250.59818	113.38627	273.19177	-225.87782	109.79576	354.29242	-313.19907	68.27542	327.02170	-114.82589	64.44980	225.87846	-62.74725	74.91769	284.24280	-77.25847	57.58069	328.75912	-329.53592	1066.87842	618.10126	-115.76472	1015.65833	714.61310	-187.74963	730.90869	775.68732	-177.52745	689.76709	777.50372	-125.91687	740.11780	784.28882	-124.82918	692.47375	782.24249	-104.49204	551.27869	765.17847	-94.82748	543.21143	648.09857	-189.65720	348.81378	768.46210	-194.50749	301.76950	760.16064	-128.34494	337.28622	767.20428	-142.90211	291.63226	764.87946	-204.78334	106.89639	766.45630	-185.78024	111.32127	632.05365	-281.88144	65.40588	692.01514	-64.80955	54.73418	644.17560	-34.69151	72.71273	689.98999	-70.41292	47.72453	764.45203
397	3.30000	-324.64697	1074.13831	509.71628	-112.19546	979.59644	432.32321	-209.14886	698.95538	361.70358	-201.78888	657.34961	348.95175	-148.62924	705.94183	362.34604	-148.10878	663.26080	348.68689	-173.22215	542.06451	338.63559	-154.42502	508.67801	474.02921	-212.95311	446.36868	314.66086	-208.91968	403.72153	306.65164	-151.22935	442.17715	324.43182	-156.87022	399.79712	316.44577	-250.65268	113.28185	273.08694	-225.95367	109.78738	354.19427	-313.23825	68.20242	326.94772	-114.83977	64.40475	225.82536	-62.78572	74.94279	284.18973	-77.27997	57.64498	328.74411	-331.07968	1067.37695	618.01685	-118.18565	1013.84644	715.08386	-189.49779	730.21509	776.17682	-178.96410	689.24554	778.29242	-127.75188	739.90350	785.46228	-126.41591	692.30963	783.46826	-105.15958	551.07239	766.51660	-94.52085	543.29846	649.51941	-189.82928	348.55350	769.24536	-194.40482	301.97003	761.26221	-128.55077	337.11249	768.01794	-143.04834	291.41949	765.57312	-204.84442	106.67381	766.67084	-185.85197	111.44416	632.30457	-281.95627	65.34860	692.11212	-64.85225	54.80931	644.23956	-34.77507	72.72544	690.04059	-70.40639	47.71197	764.52216
398	3.30833	-325.80988	1074.81726	509.69620	-114.00130	978.50781	432.40894	-210.39268	698.88440	361.29364	-203.05211	657.27100	348.54288	-150.14685	705.95764	362.26633	-149.26666	663.42639	348.39029	-173.88695	542.10028	338.27240	-155.06166	508.78177	473.70889	-213.36700	446.31625	314.38144	-209.28384	403.67563	306.37881	-151.73953	442.18335	324.20258	-157.29933	399.78232	316.23840	-250.69035	113.17110	272.99988	-226.00810	109.76594	354.08145	-313.28925	68.15623	326.89197	-114.84779	64.35067	225.78981	-62.80290	74.95245	284.13724	-77.28178	57.66527	328.69751	-332.68173	1067.77637	617.92212	-120.33120	1012.08984	715.50104	-191.47574	729.60950	776.66071	-180.76463	688.66266	778.90698	-129.83501	739.64392	786.55994	-128.32819	691.97974	784.59363	-106.13394	550.81769	767.68909	-94.52087	543.16956	650.79828	-190.20706	348.25790	769.95398	-195.11307	301.50079	761.84692	-128.86249	336.83307	768.69958	-143.30525	291.20148	766.16449	-204.98488	106.38243	766.87506	-185.93948	111.47060	632.51941	-282.04413	65.16401	692.21021	-64.91415	54.89253	644.30353	-34.90059	72.70809	690.13440	-70.47424	47.65996	764.59442
